<svg width="654" height="654" viewBox="0 0 654 654" fill="none" xmlns="http://www.w3.org/2000/svg">
<path fill-rule="evenodd" clip-rule="evenodd" d="M283.259 1.13032C280.733 2.29053 277.212 5.80337 276.605 7.76468C276.416 8.37701 271.851 28.1396 266.457 51.6845C261.064 75.227 256.583 94.543 256.5 94.6098C256.418 94.6743 253.184 95.7746 249.313 97.0545C240.368 100.013 229.664 104.409 220.618 108.845C216.72 110.756 213.254 112.298 212.918 112.271C212.582 112.243 196.85 102.142 177.96 89.824C138.485 64.083 138.06 63.885 131.148 68.1276C127.592 70.3122 73.1928 128.995 71.7599 132.194C68.9746 138.41 68.6779 137.761 92.2575 177.083L113.33 212.228L110.278 218.305C105.814 227.198 101.701 237.053 98.1869 247.271L95.0888 256.288L52.7665 265.961C2.70237 277.404 3.00368 277.296 1.00038 284.518C0.158582 287.554 0.107976 365.582 0.945176 368.506C3.14398 376.174 2.16877 375.812 50.8851 386.959C74.398 392.339 93.9986 396.943 94.4425 397.193C94.8864 397.442 96.4274 401.088 97.8649 405.299C101.342 415.467 105.367 425.158 109.783 433.998L113.406 441.249L93.1982 476.691C67.9396 520.995 68.326 520.062 72.4407 526.658C75.7849 532.021 130.874 585.709 133.855 586.51C139.957 588.149 139.389 588.423 177.426 565.587L212.536 544.51L219.128 547.758C228.298 552.277 237.749 556.211 247.708 559.655C252.377 561.271 256.344 562.739 256.523 562.919C256.705 563.101 261.294 581.818 266.726 604.516C277.226 648.408 277.242 648.459 281.633 651.472L283.783 652.948L307.211 653.12C342.159 653.38 339.846 655.933 339.846 617.108V590.085L344.586 594.801C397.55 647.492 491.416 625.335 516.619 554.194L518.852 547.889L524.929 547.604C597.942 544.155 645.603 465.227 614.792 398.779L612.195 393.181L616.469 389.618C634.018 374.988 647.404 352.878 651.806 331.253C659.412 293.896 641.012 253.065 606.146 229.94L601.77 227.037L603.759 222.649C630.046 164.68 588.14 98.8086 523.8 96.9647L514.763 96.7046L510.793 88.9124C484.716 37.7091 424.302 15.3382 374.888 38.5861C363.802 43.8024 355.851 49.4722 345.809 59.3271L339.846 65.1788V37.2786V9.37607L338.422 6.67813C337.64 5.19335 335.827 3.15378 334.395 2.1432L331.791 0.306207L308.75 0.154275C287.488 0.0161555 285.522 0.0921215 283.259 1.13032ZM314.152 118.926V212.138L306.514 213.506C220.453 228.906 182.875 331.264 238.126 399.788C255.488 421.323 290.706 440.807 312.262 440.807H314.155V453.438V466.067L310.332 465.65C280.368 462.381 247.816 446.134 226.681 423.901C173.252 367.693 174.064 283.415 228.572 227.444C236.21 219.604 236.787 211.717 230.149 205.884C221.43 198.223 211.483 204.042 194.246 226.892C117.59 328.523 181.249 477.273 307.579 491.704L314.155 492.457V559.998V627.538H306.659H299.163L289.735 587.898C277.911 538.17 279.799 542.019 265.073 537.634C250.985 533.439 231.113 524.94 219.556 518.168C212.248 513.886 212.508 513.78 173.344 537.307C155.19 548.211 140.153 557.132 139.923 557.132C139.693 557.132 130.642 548.248 119.811 537.387L100.114 517.643L120.731 481.552L141.349 445.464L141.303 441.452C141.257 437.616 140.999 436.947 135.392 426.113C128.724 413.229 124.02 401.726 120.03 388.533C115.517 373.614 120.547 376.013 69.1678 364.27C46.9636 359.197 28.3129 354.899 27.7241 354.722C26.7075 354.418 25.9278 298.769 26.9398 298.769C28.9753 298.769 110.552 279.456 112.311 278.558C115.722 276.815 117.429 273.852 119.883 265.404C123.853 251.739 128.701 239.907 136.551 224.726C144.171 209.988 145.751 215.103 120.656 173.237L100.165 139.052L119.733 118.046C130.495 106.493 139.516 96.9601 139.778 96.8634C140.042 96.7668 155.367 106.543 173.834 118.587L207.412 140.484L211.554 140.719L215.696 140.954L227.152 135.118C241.1 128.012 248.966 124.759 262.161 120.636C280.496 114.909 277.667 120.282 289.407 68.8758C294.637 45.9778 299.032 26.9012 299.175 26.4799C299.363 25.9228 301.454 25.7133 306.795 25.7133H314.155L314.152 118.926ZM428.943 56.6545C468.121 63.9495 499.668 103.97 495.85 141.531C491.974 179.675 459.843 208.975 419.062 211.556C412.217 211.989 409.899 212.686 407.226 215.119C401.932 219.935 402.176 230.009 407.702 234.661C416.928 242.43 453.424 234.537 474.95 220.117C480.939 216.105 480.612 216.137 486.211 218.957C493.665 222.711 497.674 225.78 505.312 233.584C512.778 241.212 514.682 242.437 519.075 242.437C529.563 242.437 535.582 230.253 529.501 221.323C524.667 214.219 507.065 199.054 501.269 196.998C500.604 196.761 500.705 196.374 501.729 195.232C513.827 181.752 521.739 158.301 521.796 135.763L521.826 123.06H524.653C540.946 123.058 560.963 133.313 571.559 147.091C588.936 169.689 589.849 198.308 573.951 222.143C566.879 232.748 568.746 239.585 580.315 245.448C637.42 274.387 643.252 339.795 591.896 375.299C580.529 383.156 578.526 388.694 583.908 397.382C600.13 423.558 602.443 448.102 591.139 474.099C579.393 501.115 550.542 521.57 524.122 521.619L522.132 521.623V517.569C522.132 513.219 520.747 502.949 519.519 498.21L518.769 495.309L523.174 490.636C537.88 475.033 546.496 455.013 547.632 433.816C548.269 421.905 543.915 415.761 534.807 415.72C526.263 415.681 522.288 420.591 521.465 432.198C520.688 443.132 518.178 451.532 512.997 460.54C509.197 467.144 507.605 468.931 506.667 467.648C506.257 467.089 504.135 464.064 501.947 460.929C485.238 436.958 455.837 419.474 426.907 416.307C411.139 414.58 404.365 417.681 403.595 426.984C402.797 436.613 408.376 442.032 419.092 442.032C460.846 442.032 501.614 488.447 495.546 529.077C485.889 593.738 407.919 620.945 362.514 575.501C346.534 559.507 340.669 543.817 340.027 515.348L339.673 499.584L343.689 497.761C362.56 489.197 384.012 492.344 398.875 505.857C406.734 513.002 414.655 513.345 420.27 506.782C428.041 497.694 421.229 486.368 401.628 475.79C383.81 466.177 357.942 463.933 340.917 470.523C339.901 470.917 339.846 467.395 339.846 401.8V332.662L352.539 320.155C372.892 300.097 385.248 294.534 407.744 295.289C426.254 295.912 438.787 301.341 453.928 315.293C471.01 331.032 489.668 338.674 513.507 339.692L522.928 340.095L524.085 344.381C527.523 357.125 538.911 373.342 545.755 375.244C560.002 379.203 567.877 364.233 557.865 352.224C544.697 336.43 544.513 316.621 557.396 301.838C567.741 289.966 560.698 274.621 546.448 277.975C538.802 279.775 526.992 296.587 523.855 310.134L523.05 313.606L514.181 313.318C496.837 312.756 484.948 307.818 471.555 295.618C433.904 261.316 378.948 259.642 343.668 291.723L339.846 295.199V241.058V186.915L346.115 186.505C377.862 184.438 415.697 163.304 415.697 147.641C415.697 135.615 401.18 129.869 393.063 138.682C382.754 149.876 362.284 159.192 345.734 160.224L339.691 160.599L340.004 143.82C340.423 121.138 342.035 113.109 348.912 99.4072C364.667 68.0217 397.058 50.7153 428.943 56.6545ZM257.345 174.869C248.57 179.245 248.124 192.88 256.597 197.647C265.556 202.684 276.202 196.591 276.202 186.425C276.202 176.494 266.278 170.412 257.345 174.869ZM314.155 326.626C314.155 409.894 314.099 414.481 313.083 414.472C312.494 414.468 310.224 414.049 308.037 413.54C233.415 396.192 213.348 300.864 274.67 255.038C284.533 247.667 305.072 238.982 313.083 238.795C314.099 238.772 314.155 243.353 314.155 326.626Z" fill="#04ACBC"/>
</svg>
