<svg width="247" height="98" viewBox="0 0 247 98" fill="none" xmlns="http://www.w3.org/2000/svg">
<g clip-path="url(#clip0_4_19)">
<path d="M46.9179 62.2602C43.7406 61.7999 40.8349 60.2061 38.7333 57.7707C36.6317 55.3354 35.475 52.2216 35.475 49C35.475 45.7784 36.6317 42.6646 38.7333 40.2293C40.8349 37.7939 43.7406 36.2001 46.9179 35.7398V62.2602ZM46.9179 94.1725H44.6114L41.7993 82.3757C41.7188 82.0407 41.5498 81.7337 41.3101 81.487C41.0704 81.2403 40.7688 81.063 40.4372 80.9738C37.7051 80.2401 35.0806 79.1504 32.6306 77.7326C32.3359 77.5618 32.0009 77.4732 31.6605 77.4761C31.3201 77.4791 30.9867 77.5734 30.6949 77.7493L20.8013 83.7077L14.7912 77.6764L20.774 67.1615C20.9398 66.8711 21.0271 66.5423 21.0271 66.2077C21.0271 65.873 20.9398 65.5442 20.774 65.2538C19.3614 62.796 18.2766 60.1626 17.5473 57.4212C17.4575 57.0858 17.2783 56.7813 17.0289 56.5404C16.7796 56.2996 16.4696 56.1315 16.1322 56.0542L3.81397 53.217V44.7829L16.1261 41.9503C16.4633 41.8726 16.7731 41.7043 17.0224 41.4635C17.2716 41.2228 17.451 40.9185 17.5412 40.5833C18.2704 37.8414 19.3553 35.2075 20.768 32.7492C20.9388 32.4536 21.0274 32.1175 21.0248 31.7758C21.0221 31.4341 20.9282 31.0994 20.7528 30.8066L14.7882 20.8324L20.8073 14.3652L30.6374 20.7914C30.9326 20.9842 31.2754 21.0911 31.6275 21.1002C31.9796 21.1093 32.3274 21.0203 32.6321 20.843C35.0819 19.4251 37.7065 18.3359 40.4387 17.6033C40.7729 17.5128 41.0763 17.3326 41.3163 17.0822C41.5563 16.8317 41.7238 16.5204 41.8008 16.1817L44.6235 3.8305H46.9179V31.8834C42.7223 32.3551 38.8471 34.3618 36.0329 37.52C33.2188 40.6781 31.663 44.7663 31.663 49.003C31.663 53.2398 33.2188 57.3279 36.0329 60.4861C38.8471 63.6443 42.7223 65.651 46.9179 66.1226V69.9607C36.2388 68.9902 27.848 59.9576 27.848 49.0007C27.8384 46.1456 28.4129 43.3189 29.536 40.6956C30.6591 38.0724 32.3068 35.7084 34.3772 33.7501C34.7437 33.4 34.9566 32.9182 34.9691 32.4106C34.9815 31.9031 34.7926 31.4113 34.4438 31.0435C34.095 30.6757 33.6149 30.4621 33.1091 30.4496C32.6033 30.437 32.1132 30.6266 31.7468 30.9767C29.2998 33.2912 27.3522 36.085 26.0245 39.1853C24.6968 42.2856 24.0173 45.6263 24.028 49.0007C24.028 62.0779 34.132 72.8313 46.9164 73.8125L46.9179 94.1725ZM97.6543 47.2921V46.8972C97.5816 41.803 94.538 36.8865 89.8553 34.0645C90.8483 32.1786 91.3678 30.0781 91.3688 27.9451C91.3644 24.3928 89.9563 20.9872 87.4533 18.4753C84.9502 15.9634 81.5567 14.5503 78.0169 14.5459C77.6385 14.5459 77.2601 14.5641 76.8788 14.5991C74.5828 8.93835 69.16 4.84812 63.1878 4.43804C63.0925 4.43804 62.9971 4.42285 62.9033 4.41981C62.8094 4.41677 62.6974 4.40918 62.6006 4.40766H62.59C62.0604 4.39134 61.5303 4.40554 61.0023 4.45018C60.8101 4.46689 60.6179 4.48664 60.4272 4.51094C60.3924 4.51094 60.3591 4.52005 60.3258 4.52461C60.1745 4.54587 60.0231 4.56562 59.8809 4.58992H59.8476H59.8354H59.7991C59.5721 4.62789 59.3542 4.67042 59.1408 4.7175L59.0938 4.72661H59.0802H59.0545C58.8305 4.77825 58.611 4.83293 58.4007 4.89065L58.3507 4.90584L58.3205 4.91495C55.3596 5.77917 52.7242 7.51257 50.7531 9.89218V1.91676C50.7523 1.42284 50.5616 0.948259 50.2207 0.591996C49.8798 0.235734 49.415 0.02529 48.9233 0.00454712H43.0237C42.6066 0.0227825 42.2069 0.177795 41.886 0.445825C41.565 0.713855 41.3405 1.08011 41.2469 1.48845L38.3365 14.2194C36.0583 14.9103 33.854 15.826 31.7558 16.9533L21.5474 10.281C21.171 10.0353 20.7202 9.93108 20.2746 9.98667C19.829 10.0423 19.4173 10.2541 19.1122 10.5848L11.0181 19.271C10.7356 19.5751 10.5593 19.9631 10.5159 20.3766C10.4725 20.7901 10.5643 21.2065 10.7775 21.5629L16.9147 31.8242C15.7831 33.9427 14.8649 36.1692 14.1737 38.4706L1.4817 41.3914C1.06079 41.488 0.685027 41.7251 0.415868 42.0639C0.146708 42.4027 9.13832e-05 42.8232 0 43.2565V54.742C2.17405e-05 55.1754 0.146584 55.5961 0.415727 55.9352C0.684869 56.2743 1.06067 56.5117 1.4817 56.6086L14.1737 59.5293C14.8679 61.8396 15.7906 64.0743 16.9283 66.2001L10.7563 77.0476C10.5482 77.4116 10.4651 77.8342 10.5198 78.2502C10.5745 78.6663 10.764 79.0528 11.059 79.3502L19.1516 87.4714C19.453 87.7757 19.8476 87.9695 20.272 88.0216C20.6964 88.0737 21.1259 87.981 21.4914 87.7585L31.718 81.6011C33.833 82.7384 36.0557 83.6613 38.3531 84.3563L41.256 96.5313C41.3554 96.9501 41.5926 97.323 41.9293 97.5898C42.266 97.8566 42.6825 98.0016 43.1115 98.0015H48.8324C49.338 97.9999 49.8222 97.7972 50.1791 97.4379C50.536 97.0786 50.7364 96.592 50.7364 96.0847V88.3979C52.1651 90.0322 53.925 91.3415 55.8984 92.2384C57.8719 93.1352 60.0134 93.5989 62.1798 93.5984C62.2964 93.5984 62.4159 93.5984 62.531 93.5984L62.8125 93.5893H62.8927C62.9729 93.5893 63.0546 93.5893 63.1348 93.5771C63.1591 93.5771 63.1833 93.5771 63.206 93.5771H63.2393H63.3119H63.3286L63.5707 93.5559H63.6237C63.7266 93.5467 63.8295 93.5361 63.9264 93.524H63.9642H63.9718L64.2911 93.4829H64.3229C64.4501 93.4662 64.5802 93.445 64.7058 93.4237H64.7225C64.9525 93.3888 65.1584 93.3493 65.3506 93.3068H65.3748L65.4505 93.2901C65.6109 93.2551 65.7713 93.2187 65.9302 93.1792C66.0528 93.1488 66.1724 93.1154 66.295 93.0835L66.4811 93.0319C66.6128 92.9954 66.7445 92.9529 66.8762 92.9119L67.0275 92.8663C67.1622 92.8223 67.2969 92.7752 67.4316 92.7281L67.5587 92.6825C67.698 92.6324 67.8342 92.5792 67.9704 92.5306L68.0809 92.4866C68.2216 92.4304 68.3609 92.3727 68.4986 92.3104L68.5879 92.2724C68.7393 92.2071 68.8755 92.1418 69.0192 92.0735L69.0677 92.0492C73.1541 90.0671 76.2976 86.4188 77.4841 82.1479C77.6537 82.1585 77.8262 82.1646 78.0018 82.1646C86.2729 82.1646 93.2607 74.8878 93.2607 66.2775C93.2728 63.7226 92.6374 61.2066 91.4142 58.9658C95.2433 55.9737 97.5847 51.6526 97.6558 47.2921H97.6543ZM87.8182 56.8136C87.5962 56.952 87.405 57.1347 87.2563 57.3503C87.1076 57.5659 87.0047 57.8099 86.9539 58.0671C86.9031 58.3243 86.9055 58.5893 86.961 58.8455C87.0164 59.1017 87.1238 59.3438 87.2764 59.5567C88.683 61.4949 89.4432 63.8297 89.4482 66.2274C89.4482 72.7584 84.2085 78.2855 78.0048 78.2855C78.0028 76.9168 77.8113 75.555 77.4357 74.2393C78.8227 72.9881 79.9307 71.4571 80.6871 69.7463C81.4435 68.0355 81.8312 66.1837 81.8248 64.3121C81.8248 63.8046 81.6239 63.3178 81.2663 62.9589C80.9086 62.6 80.4236 62.3984 79.9178 62.3984C79.412 62.3984 78.927 62.6 78.5694 62.9589C78.2117 63.3178 78.0108 63.8046 78.0108 64.3121C78.0182 66.5527 77.2354 68.7236 75.8012 70.4407C72.9906 65.7156 67.816 62.3984 62.1798 62.3984C61.9248 62.3912 61.6709 62.4354 61.4331 62.5284C61.1954 62.6213 60.9787 62.7612 60.7957 62.9397C60.6128 63.1182 60.4674 63.3317 60.3681 63.5675C60.2688 63.8034 60.2176 64.0569 60.2176 64.3129C60.2176 64.569 60.2688 64.8224 60.3681 65.0583C60.4674 65.2942 60.6128 65.5076 60.7957 65.6861C60.9787 65.8646 61.1954 66.0045 61.4331 66.0975C61.6709 66.1904 61.9248 66.2346 62.1798 66.2274C68.4683 66.2274 74.1969 71.9747 74.1969 78.2855C74.1969 78.6302 74.1787 78.9796 74.1454 79.3243C74.0937 79.4599 74.0581 79.6011 74.0395 79.7451C73.4341 84.4535 69.5505 88.4769 64.5984 89.5188C64.4258 89.5552 64.2669 89.5841 64.1156 89.6069H64.0717C63.9869 89.6236 63.9007 89.6373 63.8008 89.6494L63.5571 89.6813H63.5102C63.4315 89.6935 63.3588 89.6995 63.2726 89.7071H63.2514L63.0349 89.7284H62.9547H62.8654C62.8337 89.7284 62.8004 89.7284 62.7671 89.7284H62.7141H62.4689H62.1874C59.1533 89.7248 56.2444 88.5135 54.0991 86.3603C51.9538 84.2071 50.7472 81.2878 50.744 78.2429V74.9076C51.1763 74.656 51.6326 74.4484 52.1061 74.2879C53.456 73.8291 54.9067 73.7581 56.2947 74.0828C57.6826 74.4076 58.9525 75.1151 59.9611 76.1257C60.3191 76.4844 60.8045 76.6857 61.3104 76.6852C61.8164 76.6848 62.3014 76.4827 62.6588 76.1234C63.0163 75.7641 63.2169 75.277 63.2164 74.7693C63.216 74.2615 63.0146 73.7748 62.6566 73.4161C61.1441 71.9018 59.2402 70.8416 57.1594 70.355C55.0787 69.8685 52.9039 69.975 50.8802 70.6624L50.75 70.7095V49.7936L53.5409 46.9898C55.3177 45.2082 57.8815 44.186 60.5725 44.186C63.2635 44.186 65.8273 45.2082 67.6026 46.9898C70.1057 49.4992 73.498 50.9106 77.0362 50.9145H78.2091C78.5801 52.7549 79.4865 54.4437 80.8138 55.7672C80.991 55.9448 81.2013 56.0856 81.4327 56.1817C81.6642 56.2777 81.9122 56.3271 82.1626 56.327C82.4131 56.3268 82.661 56.2772 82.8924 56.1809C83.1237 56.0846 83.3338 55.9435 83.5108 55.7656C83.6878 55.5878 83.8282 55.3768 83.9239 55.1445C84.0196 54.9123 84.0688 54.6634 84.0686 54.4121C84.0685 54.1607 84.019 53.9119 83.9231 53.6797C83.8271 53.4476 83.6865 53.2367 83.5093 53.0591C82.9777 52.5263 82.5559 51.8935 82.2682 51.1971C81.9805 50.5006 81.8323 49.754 81.8323 49C81.8323 48.246 81.9805 47.4994 82.2682 46.8029C82.5559 46.1064 82.9777 45.4737 83.5093 44.9409C83.6866 44.7633 83.8273 44.5524 83.9233 44.3202C84.0194 44.088 84.069 43.8391 84.0692 43.5877C84.0694 43.3363 84.0202 43.0873 83.9246 42.855C83.8289 42.6226 83.6886 42.4115 83.5116 42.2336C83.3346 42.0556 83.1244 41.9145 82.893 41.8181C82.6617 41.7217 82.4137 41.6719 82.1632 41.6717C81.9127 41.6715 81.6645 41.7208 81.433 41.8168C81.2015 41.9128 80.9911 42.0537 80.8138 42.2313C79.4854 43.557 78.5789 45.2485 78.2091 47.0916H77.0362C75.784 47.0917 74.544 46.8442 73.3871 46.3634C72.2303 45.8826 71.1791 45.1778 70.2936 44.2893C67.8085 41.7939 64.2624 40.3631 60.5665 40.3631C56.8705 40.3631 53.3245 41.7939 50.8393 44.2893L50.744 44.385V27.9451C52.7486 27.9503 54.7343 27.5566 56.5863 26.7868C58.4383 26.0169 60.1198 24.8862 61.5336 23.46C61.7109 23.2817 61.8514 23.0702 61.9473 22.8375C62.0431 22.6048 62.0923 22.3554 62.0921 22.1035C62.0919 21.8517 62.0423 21.6024 61.946 21.3698C61.8498 21.1373 61.7089 20.926 61.5313 20.7481C61.3537 20.5702 61.1429 20.4291 60.911 20.3329C60.6791 20.2367 60.4306 20.1874 60.1797 20.1876C59.9287 20.1878 59.6803 20.2376 59.4486 20.3342C59.2168 20.4307 59.0063 20.5721 58.829 20.7504C57.7683 21.8195 56.507 22.6672 55.118 23.2444C53.729 23.8215 52.2398 24.1168 50.7364 24.1131V20.2947C50.7369 19.7014 50.7814 19.1089 50.8696 18.5222C50.9014 18.3157 50.9347 18.1243 50.9695 17.9435C50.9703 17.9395 50.9703 17.9354 50.9695 17.9314C51.0285 17.6443 51.0966 17.3633 51.1708 17.0945C51.1699 17.089 51.1699 17.0833 51.1708 17.0778C51.2177 16.8986 51.2707 16.7254 51.3221 16.5614C51.3228 16.5548 51.3228 16.5482 51.3221 16.5417C52.5496 12.819 55.4675 9.85877 58.9894 8.73179L59.0651 8.70749L59.3148 8.63307H59.339C59.5025 8.5875 59.6765 8.54346 59.8672 8.50093H59.8793C60.0443 8.46448 60.2259 8.42803 60.4318 8.39309C60.7102 8.34601 60.9933 8.30955 61.2763 8.28525C61.6649 8.25432 62.055 8.24419 62.4447 8.25488H62.4659C62.531 8.25488 62.5945 8.25488 62.6611 8.25488H62.6823C62.7444 8.25488 62.8034 8.25488 62.87 8.26703C67.7222 8.61636 72.3761 12.4818 73.6989 17.2585C73.7277 17.3594 73.7642 17.4579 73.8079 17.5532C74.0543 18.4465 74.185 19.3679 74.1969 20.2947C74.1969 26.5219 68.6939 31.7802 62.1798 31.7802C61.6741 31.7802 61.189 31.9818 60.8314 32.3407C60.4738 32.6996 60.2728 33.1863 60.2728 33.6939C60.2728 34.2015 60.4738 34.6882 60.8314 35.0471C61.189 35.406 61.6741 35.6076 62.1798 35.6076C65.6442 35.599 69.0123 34.4627 71.7783 32.3695C73.4712 33.0026 74.9523 34.1011 76.0524 35.5393C76.2012 35.7478 76.3902 35.9241 76.6082 36.0579C76.8263 36.1916 77.0689 36.28 77.3216 36.3178C77.5744 36.3556 77.8321 36.3421 78.0795 36.278C78.327 36.2139 78.559 36.1005 78.7619 35.9446C78.9649 35.7887 79.1345 35.5935 79.2607 35.3706C79.387 35.1476 79.4673 34.9015 79.4969 34.6467C79.5265 34.392 79.5048 34.1339 79.4331 33.8878C79.3614 33.6417 79.2411 33.4125 79.0794 33.2139C77.9071 31.6798 76.4194 30.4169 74.7175 29.511C76.7713 26.929 78.0093 23.7197 78.0093 20.2947C78.0088 19.6556 77.9658 19.0173 77.8807 18.384H78.0093C80.537 18.3876 82.9602 19.3969 84.7476 21.1906C86.5349 22.9843 87.5406 25.416 87.5442 27.9527C87.5377 30.0157 86.8596 32.02 85.613 33.6605C85.4402 33.8912 85.3215 34.1581 85.2659 34.4414C85.2104 34.7246 85.2193 35.0168 85.2921 35.296C85.3648 35.5753 85.4996 35.8344 85.6862 36.0541C85.8728 36.2738 86.1065 36.4482 86.3698 36.5645C90.0914 38.1881 93.8358 42.0733 93.8358 47.0855C93.8358 51.4901 90.7271 55.0002 87.8182 56.8136ZM39.2915 29.8634C39.6686 29.8634 40.0373 29.7511 40.3509 29.5409C40.6645 29.3306 40.909 29.0317 41.0533 28.682C41.1976 28.3323 41.2354 27.9475 41.1618 27.5763C41.0882 27.2051 40.9066 26.8641 40.6399 26.5964C40.3732 26.3288 40.0334 26.1465 39.6635 26.0727C39.2936 25.9988 38.9101 26.0367 38.5617 26.1816C38.2132 26.3264 37.9154 26.5717 37.7059 26.8864C37.4963 27.2011 37.3845 27.5711 37.3845 27.9496C37.3849 28.4571 37.5859 28.9436 37.9435 29.3024C38.301 29.6612 38.7858 29.863 39.2915 29.8634Z" fill="#00ACB9"/>
<path d="M244.418 59.7116C244.81 59.3903 245.091 58.9535 245.222 58.4631C245.353 57.9726 245.326 57.4533 245.147 56.9785C244.968 56.5038 244.644 56.0977 244.222 55.8176C243.8 55.5375 243.301 55.3977 242.796 55.4178C242.131 55.4178 241.613 55.7125 241.172 56.0831C238.369 58.6758 234.901 60.5257 230.179 60.5257C223.391 60.5257 217.561 55.8613 216.75 47.5685H244.344C244.693 47.5701 245.04 47.5022 245.363 47.3686C245.686 47.235 245.98 47.0384 246.227 46.7903C246.474 46.5421 246.669 46.2473 246.802 45.9228C246.935 45.5983 247.002 45.2506 247 44.8999C247 34.7571 240.583 25.5013 229.292 25.5013C218.742 25.5013 210.994 34.3865 210.994 45.4178V45.5697C210.994 57.4166 219.553 65.4877 230.029 65.4877C236.522 65.4877 240.801 63.1928 244.416 59.7162L244.418 59.7116ZM216.75 43.3476C217.489 35.8704 222.501 30.3175 229.145 30.3175C236.745 30.3175 240.728 36.3929 241.32 43.3476H216.75ZM190.207 62.081C190.201 62.4614 190.272 62.8391 190.415 63.1916C190.557 63.5441 190.769 63.8644 191.037 64.1334C191.305 64.4024 191.624 64.6148 191.976 64.7579C192.327 64.9011 192.703 64.9721 193.082 64.9668C194.705 64.9668 195.885 63.6348 195.885 62.081V49.0494C195.885 38.018 201.939 32.4652 209.313 31.5751C210.788 31.3534 211.822 30.2431 211.822 28.6893C211.822 27.0611 210.714 25.8035 209.018 25.8035C204.221 25.8035 198.688 29.6538 195.885 36.0208V28.8367C195.891 28.4561 195.82 28.0783 195.678 27.7256C195.535 27.3728 195.324 27.0524 195.056 26.7833C194.788 26.5142 194.468 26.3018 194.117 26.1588C193.765 26.0158 193.389 25.9451 193.01 25.9509C191.46 25.9509 190.205 27.2829 190.205 28.8367L190.207 62.081ZM165.213 60.3784C157.17 60.3784 151.121 53.7137 151.121 45.4937V45.3419C151.121 37.2708 156.801 30.5332 165.066 30.5332C173.106 30.5332 179.231 37.2708 179.231 45.4892V45.6411C179.231 53.7122 173.48 60.3738 165.213 60.3738V60.3784ZM165.062 65.4832C176.564 65.4832 185.055 56.3018 185.055 45.4907V45.3388C185.055 34.5277 176.644 25.4952 165.208 25.4952C153.706 25.4952 145.288 34.6766 145.288 45.4862V45.638C145.288 56.4491 153.624 65.4832 165.062 65.4832ZM128.926 65.4832C135.345 65.4832 139.697 62.9649 143.313 59.3364C143.778 58.8618 144.043 58.2252 144.052 57.5594C144.052 56.2274 142.87 54.9683 141.468 54.9683C140.729 54.9683 140.215 55.3389 139.846 55.7079C137.041 58.375 133.574 60.3738 129.221 60.3738C121.252 60.3738 115.203 53.7836 115.203 45.4892V45.3373C115.203 37.1189 121.106 30.5286 128.852 30.5286C133.427 30.5286 136.525 32.6019 139.255 35.1201C139.776 35.5466 140.427 35.7814 141.099 35.7853C141.821 35.7853 142.514 35.4973 143.025 34.9846C143.536 34.4719 143.823 33.7765 143.823 33.0514C143.824 32.6742 143.746 32.3011 143.593 31.9563C143.441 31.6116 143.217 31.3032 142.938 31.0511C139.544 27.9421 135.264 25.4982 128.92 25.4982C117.779 25.4982 109.369 34.6796 109.369 45.4892V45.6411C109.369 56.3778 117.779 65.4862 128.92 65.4862" fill="white"/>
<path d="M122.615 77.0811V72.2208C122.613 72.1516 122.626 72.0829 122.652 72.0188C122.678 71.9547 122.716 71.8964 122.765 71.8475C122.814 71.7986 122.872 71.76 122.935 71.7341C122.999 71.7082 123.068 71.6955 123.137 71.6968H126.562C126.684 71.698 126.801 71.7473 126.888 71.8342C126.975 71.9211 127.024 72.0386 127.025 72.1615C127.025 72.2226 127.013 72.2832 126.99 72.3396C126.967 72.3961 126.933 72.4474 126.89 72.4906C126.847 72.5338 126.796 72.568 126.739 72.5913C126.683 72.6146 126.623 72.6265 126.562 72.6263H123.651V74.1634H126.185C126.309 74.165 126.427 74.2155 126.513 74.3039C126.6 74.3924 126.648 74.5116 126.648 74.6357C126.648 74.6963 126.636 74.7563 126.613 74.8122C126.589 74.8681 126.555 74.9188 126.512 74.9612C126.469 75.0036 126.418 75.037 126.361 75.0593C126.305 75.0817 126.245 75.0926 126.185 75.0914H123.651V76.6801H126.606C126.727 76.6808 126.843 76.7288 126.929 76.8138C127.016 76.8989 127.066 77.0143 127.069 77.1357C127.07 77.1971 127.059 77.2581 127.036 77.3151C127.013 77.372 126.979 77.4237 126.936 77.4671C126.893 77.5106 126.841 77.5447 126.784 77.5677C126.728 77.5906 126.667 77.6017 126.606 77.6005H123.137C123.068 77.6017 123 77.5892 122.937 77.5635C122.873 77.5379 122.815 77.4998 122.766 77.4514C122.718 77.4029 122.679 77.3452 122.653 77.2816C122.627 77.218 122.614 77.1498 122.615 77.0811Z" fill="#00ACB9"/>
<path d="M128.254 72.1813C128.253 72.1124 128.267 72.0442 128.293 71.9805C128.319 71.9168 128.357 71.859 128.406 71.8104C128.455 71.7618 128.512 71.7233 128.576 71.6973C128.639 71.6713 128.707 71.6582 128.776 71.6588H128.885C128.993 71.6608 129.098 71.6896 129.193 71.7426C129.287 71.7956 129.366 71.8712 129.424 71.9626L132.369 75.7885V72.157C132.376 72.0263 132.433 71.9032 132.528 71.8132C132.622 71.7232 132.748 71.673 132.878 71.673C133.009 71.673 133.134 71.7232 133.229 71.8132C133.324 71.9032 133.381 72.0263 133.388 72.157V77.1221C133.389 77.1894 133.377 77.2562 133.352 77.3188C133.327 77.3813 133.29 77.4382 133.243 77.4861C133.196 77.5341 133.139 77.5721 133.078 77.598C133.016 77.6239 132.949 77.6372 132.882 77.6369H132.84C132.732 77.6348 132.626 77.606 132.532 77.553C132.438 77.5 132.359 77.4245 132.301 77.3332L129.274 73.3979V77.1464C129.267 77.2771 129.21 77.4001 129.115 77.4901C129.021 77.5802 128.895 77.6303 128.765 77.6303C128.634 77.6303 128.509 77.5802 128.414 77.4901C128.319 77.4001 128.262 77.2771 128.255 77.1464L128.254 72.1813Z" fill="#00ACB9"/>
<path d="M134.641 74.6691V74.6524C134.635 74.2499 134.709 73.8503 134.86 73.4772C135.01 73.1041 135.234 72.765 135.517 72.48C135.801 72.195 136.138 71.9699 136.509 71.8179C136.881 71.6659 137.279 71.5901 137.68 71.595C138.564 71.595 139.152 71.8061 139.691 72.195C139.756 72.2442 139.809 72.308 139.846 72.3813C139.882 72.4545 139.901 72.5353 139.902 72.6172C139.901 72.7539 139.847 72.8848 139.75 72.9814C139.654 73.0779 139.523 73.1321 139.387 73.1321C139.271 73.1279 139.159 73.0864 139.068 73.0136C138.658 72.6987 138.153 72.5351 137.637 72.5504C136.552 72.5504 135.727 73.5042 135.727 74.6357V74.6524C135.727 75.8675 136.527 76.7636 137.73 76.7636C138.239 76.7686 138.737 76.6123 139.152 76.3171V75.2098H137.99C137.871 75.2099 137.757 75.1629 137.672 75.0791C137.587 74.9953 137.538 74.8813 137.536 74.7618C137.536 74.6409 137.584 74.525 137.669 74.4396C137.754 74.3541 137.87 74.3061 137.99 74.3061H139.632C139.7 74.3057 139.767 74.3188 139.829 74.3445C139.892 74.3701 139.949 74.408 139.997 74.4559C140.045 74.5037 140.083 74.5606 140.109 74.6233C140.135 74.6859 140.148 74.7531 140.148 74.821V76.4006C140.155 76.5331 140.124 76.6648 140.06 76.7809C139.997 76.897 139.902 76.9931 139.787 77.0583C139.17 77.4788 138.442 77.7046 137.696 77.7068C135.853 77.7068 134.641 76.3885 134.641 74.6691Z" fill="#00ACB9"/>
<path d="M141.5 77.081V72.2208C141.499 72.1517 141.512 72.0831 141.537 72.019C141.563 71.955 141.602 71.8968 141.65 71.848C141.699 71.7991 141.757 71.7605 141.821 71.7346C141.885 71.7086 141.953 71.6957 142.022 71.6968H145.446C145.568 71.698 145.685 71.7473 145.772 71.8342C145.858 71.9211 145.907 72.0386 145.909 72.1615C145.909 72.2226 145.897 72.2832 145.874 72.3396C145.851 72.3961 145.816 72.4474 145.773 72.4906C145.73 72.5338 145.679 72.568 145.623 72.5913C145.567 72.6146 145.506 72.6265 145.446 72.6263H142.534V74.1634H145.067C145.191 74.165 145.309 74.2155 145.396 74.3039C145.482 74.3924 145.531 74.5116 145.53 74.6357C145.53 74.6963 145.518 74.7563 145.495 74.8122C145.471 74.8681 145.437 74.9187 145.394 74.9612C145.351 75.0036 145.3 75.037 145.244 75.0593C145.188 75.0817 145.128 75.0926 145.067 75.0914H142.534V76.6801H145.488C145.609 76.6808 145.725 76.7288 145.811 76.8138C145.898 76.8988 145.948 77.0143 145.951 77.1357C145.952 77.1971 145.941 77.2581 145.918 77.315C145.895 77.372 145.861 77.4237 145.818 77.4671C145.775 77.5105 145.723 77.5447 145.667 77.5676C145.61 77.5905 145.549 77.6017 145.488 77.6005H142.02C141.952 77.6013 141.884 77.5884 141.821 77.5626C141.758 77.5369 141.7 77.4987 141.652 77.4503C141.603 77.402 141.565 77.3444 141.539 77.281C141.513 77.2176 141.499 77.1496 141.5 77.081Z" fill="#00ACB9"/>
<path d="M147.139 72.1813C147.139 72.1124 147.152 72.0442 147.178 71.9805C147.204 71.9168 147.243 71.859 147.291 71.8104C147.34 71.7618 147.398 71.7233 147.461 71.6973C147.525 71.6713 147.593 71.6582 147.661 71.6588H147.77C147.878 71.6608 147.984 71.6896 148.078 71.7426C148.172 71.7956 148.251 71.8712 148.309 71.9626L151.254 75.7885V72.157C151.261 72.0263 151.318 71.9032 151.413 71.8132C151.508 71.7232 151.633 71.673 151.763 71.673C151.894 71.673 152.019 71.7232 152.114 71.8132C152.209 71.9032 152.266 72.0263 152.273 72.157V77.1221C152.274 77.1894 152.262 77.2562 152.237 77.3188C152.212 77.3813 152.175 77.4382 152.128 77.4861C152.081 77.5341 152.025 77.5721 151.963 77.598C151.901 77.6239 151.834 77.6372 151.767 77.6369H151.725C151.617 77.635 151.512 77.6062 151.418 77.5532C151.324 77.5001 151.245 77.4245 151.188 77.3332L148.161 73.3979V77.1464C148.154 77.2771 148.097 77.4001 148.002 77.4901C147.907 77.5802 147.782 77.6303 147.651 77.6303C147.521 77.6303 147.395 77.5802 147.301 77.4901C147.206 77.4001 147.149 77.2771 147.142 77.1464L147.139 72.1813Z" fill="#00ACB9"/>
<path d="M153.788 72.1645C153.788 72.0268 153.842 71.8946 153.939 71.7972C154.036 71.6998 154.168 71.6451 154.305 71.6451C154.443 71.6451 154.574 71.6998 154.671 71.7972C154.768 71.8946 154.823 72.0268 154.823 72.1645V74.1497H157.634V72.1645C157.634 72.0268 157.688 71.8946 157.785 71.7972C157.882 71.6998 158.014 71.6451 158.151 71.6451C158.288 71.6451 158.42 71.6998 158.517 71.7972C158.614 71.8946 158.669 72.0268 158.669 72.1645V77.1312C158.669 77.2689 158.614 77.401 158.517 77.4985C158.42 77.5959 158.288 77.6506 158.151 77.6506C158.014 77.6506 157.882 77.5959 157.785 77.4985C157.688 77.401 157.634 77.2689 157.634 77.1312V75.1126H154.829V77.1312C154.829 77.2689 154.775 77.401 154.677 77.4985C154.58 77.5959 154.449 77.6506 154.311 77.6506C154.174 77.6506 154.043 77.5959 153.945 77.4985C153.848 77.401 153.794 77.2689 153.794 77.1312L153.788 72.1645Z" fill="#00ACB9"/>
<path d="M159.848 76.9277L162.035 72.0294C162.083 71.9035 162.169 71.7956 162.281 71.7201C162.392 71.6446 162.524 71.6052 162.658 71.6072H162.708C162.842 71.6053 162.972 71.6449 163.082 71.7205C163.192 71.7961 163.276 71.904 163.323 72.0294L165.511 76.9277C165.549 76.9949 165.57 77.0706 165.57 77.1479C165.572 77.2131 165.56 77.2779 165.536 77.3384C165.512 77.399 165.476 77.4542 165.431 77.5006C165.385 77.5471 165.331 77.5839 165.271 77.6089C165.211 77.6338 165.146 77.6465 165.081 77.6461C164.97 77.6462 164.862 77.6112 164.771 77.5461C164.681 77.4809 164.613 77.3889 164.577 77.2831L164.098 76.1773H161.236L160.739 77.3165C160.704 77.4151 160.639 77.5 160.552 77.5591C160.466 77.6183 160.364 77.6487 160.259 77.6461C160.196 77.6469 160.133 77.635 160.075 77.6111C160.016 77.5872 159.963 77.5517 159.918 77.5069C159.874 77.462 159.838 77.4086 159.815 77.3498C159.791 77.291 159.779 77.228 159.78 77.1646C159.784 77.0814 159.807 77.0002 159.848 76.9277ZM163.701 75.2569L162.666 72.8678L161.64 75.2554L163.701 75.2569Z" fill="#00ACB9"/>
<path d="M166.689 72.2162C166.688 72.1471 166.7 72.0785 166.726 72.0145C166.752 71.9504 166.791 71.8922 166.839 71.8434C166.888 71.7945 166.946 71.756 167.01 71.73C167.074 71.704 167.142 71.6912 167.211 71.6922H169.315C170.056 71.6922 170.636 71.9124 171.014 72.283C171.339 72.6266 171.515 73.0854 171.503 73.5589V73.5756C171.503 74.5218 170.957 75.0944 170.165 75.3405L171.293 76.7682C171.396 76.8747 171.456 77.0161 171.461 77.1646C171.46 77.229 171.446 77.2925 171.421 77.3515C171.395 77.4106 171.358 77.464 171.312 77.5088C171.266 77.5535 171.211 77.5886 171.152 77.6122C171.092 77.6358 171.028 77.6473 170.964 77.6461C170.864 77.6476 170.765 77.6237 170.677 77.5764C170.588 77.5291 170.513 77.46 170.459 77.3757L169.029 75.5425H167.724V77.1312C167.724 77.269 167.669 77.4011 167.572 77.4985C167.475 77.5959 167.344 77.6506 167.206 77.6506C167.069 77.6506 166.937 77.5959 166.84 77.4985C166.743 77.4011 166.689 77.269 166.689 77.1312V72.2162ZM169.239 74.6221C169.98 74.6221 170.45 74.2347 170.45 73.6348V73.6181C170.45 72.9847 169.996 72.6384 169.23 72.6384H167.716V74.6221H169.239Z" fill="#00ACB9"/>
<path d="M172.839 72.1645C172.839 72.0268 172.894 71.8946 172.991 71.7972C173.088 71.6998 173.22 71.6451 173.357 71.6451C173.494 71.6451 173.626 71.6998 173.723 71.7972C173.82 71.8946 173.875 72.0268 173.875 72.1645V77.1312C173.875 77.2689 173.82 77.401 173.723 77.4985C173.626 77.5959 173.494 77.6506 173.357 77.6506C173.22 77.6506 173.088 77.5959 172.991 77.4985C172.894 77.401 172.839 77.2689 172.839 77.1312V72.1645Z" fill="#00ACB9"/>
<path d="M175.11 76.9276L177.298 72.0294C177.346 71.9036 177.432 71.7957 177.543 71.7203C177.654 71.6448 177.786 71.6053 177.92 71.6071H177.972C178.104 71.607 178.232 71.6474 178.34 71.7229C178.449 71.7984 178.531 71.9053 178.577 72.0294L180.766 76.9276C180.804 76.9948 180.824 77.0706 180.825 77.1479C180.826 77.2129 180.814 77.2776 180.791 77.338C180.767 77.3985 180.731 77.4536 180.686 77.5C180.64 77.5465 180.586 77.5833 180.526 77.6084C180.466 77.6334 180.402 77.6462 180.337 77.646C180.226 77.6465 180.117 77.6116 180.026 77.5465C179.935 77.4813 179.867 77.3891 179.832 77.283L179.352 76.1773H176.492L175.994 77.3164C175.958 77.4148 175.893 77.4995 175.807 77.5586C175.722 77.6178 175.619 77.6484 175.515 77.646C175.452 77.6468 175.389 77.6349 175.331 77.611C175.272 77.5871 175.219 77.5517 175.174 77.5068C175.13 77.462 175.094 77.4085 175.07 77.3498C175.047 77.291 175.035 77.228 175.036 77.1646C175.041 77.0808 175.067 76.9996 175.11 76.9276ZM178.965 75.2569L177.929 72.8678L176.894 75.2569H178.965Z" fill="#00ACB9"/>
<path d="M184.472 72.2162C184.471 72.1471 184.484 72.0784 184.509 72.0142C184.535 71.9501 184.574 71.8919 184.622 71.8429C184.671 71.794 184.729 71.7555 184.793 71.7296C184.857 71.7037 184.925 71.691 184.994 71.6922H187.113C187.787 71.6922 188.324 71.8775 188.654 72.2162C188.783 72.3435 188.885 72.4962 188.953 72.6647C189.021 72.8333 189.054 73.0141 189.049 73.1959V73.2126C189.049 73.9219 188.645 74.3016 188.207 74.5294C188.898 74.7664 189.377 75.1628 189.377 75.9662V75.983C189.377 77.0461 188.51 77.6036 187.198 77.6036H184.993C184.924 77.6048 184.856 77.5921 184.792 77.5663C184.728 77.5405 184.67 77.5021 184.621 77.4534C184.573 77.4046 184.534 77.3465 184.508 77.2826C184.482 77.2186 184.47 77.1501 184.471 77.0811L184.472 72.2162ZM186.904 74.1831C187.569 74.1831 188.015 73.9219 188.015 73.3812V73.3645C188.015 72.8997 187.644 72.6126 186.98 72.6126H185.491V74.1831H186.904ZM187.207 76.6831C187.914 76.6831 188.344 76.4052 188.344 75.8721V75.8554C188.344 75.3572 187.949 75.0625 187.133 75.0625H185.492V76.6831H187.207Z" fill="#00ACB9"/>
<path d="M190.608 72.1645C190.608 72.0268 190.662 71.8946 190.759 71.7972C190.856 71.6998 190.988 71.6451 191.125 71.6451C191.263 71.6451 191.394 71.6998 191.491 71.7972C191.588 71.8946 191.643 72.0268 191.643 72.1645V77.1312C191.643 77.2689 191.588 77.401 191.491 77.4985C191.394 77.5959 191.263 77.6506 191.125 77.6506C190.988 77.6506 190.856 77.5959 190.759 77.4985C190.662 77.401 190.608 77.2689 190.608 77.1312V72.1645Z" fill="#00ACB9"/>
<path d="M192.955 74.6691V74.6524C192.952 74.2465 193.031 73.8442 193.186 73.4693C193.34 73.0943 193.569 72.7543 193.856 72.4693C194.144 72.1843 194.486 71.9601 194.862 71.8099C195.238 71.6597 195.64 71.5867 196.044 71.595C197.86 71.595 199.115 72.9726 199.115 74.6327V74.6494C199.119 75.0555 199.042 75.4582 198.887 75.8336C198.733 76.2091 198.505 76.5495 198.217 76.8348C197.929 77.12 197.587 77.3442 197.211 77.494C196.834 77.6438 196.432 77.7162 196.028 77.7068C194.217 77.7068 192.955 76.3292 192.955 74.6691ZM198.03 74.6691V74.6524C198.03 73.5042 197.196 72.5503 196.028 72.5503C194.859 72.5503 194.04 73.4875 194.04 74.6357V74.6524C194.04 75.8007 194.874 76.7469 196.044 76.7469C197.214 76.7469 198.03 75.8128 198.03 74.6691Z" fill="#00ACB9"/>
<path d="M200.37 72.1813C200.369 72.1124 200.382 72.0442 200.409 71.9805C200.435 71.9168 200.473 71.859 200.522 71.8104C200.57 71.7618 200.628 71.7233 200.692 71.6973C200.755 71.6713 200.823 71.6582 200.892 71.6588H201.001C201.098 71.6582 201.194 71.6836 201.278 71.7324C201.363 71.7813 201.432 71.8518 201.481 71.9368L203.26 74.7405L205.057 71.9352C205.103 71.851 205.171 71.7812 205.254 71.7335C205.337 71.6858 205.432 71.662 205.528 71.6649H205.638C205.707 71.6645 205.774 71.6777 205.838 71.7038C205.901 71.7299 205.959 71.7684 206.007 71.817C206.056 71.8656 206.094 71.9234 206.12 71.9869C206.146 72.0505 206.159 72.1186 206.159 72.1874V77.1372C206.159 77.2056 206.146 77.2732 206.119 77.3363C206.093 77.3994 206.055 77.4565 206.006 77.5045C205.958 77.5524 205.9 77.5902 205.837 77.6156C205.774 77.6409 205.706 77.6533 205.638 77.6521C205.503 77.6502 205.373 77.5953 205.277 77.4991C205.182 77.403 205.127 77.2732 205.125 77.1372V73.5847L203.686 75.7551C203.646 75.8361 203.584 75.9042 203.507 75.9518C203.43 75.9994 203.342 76.0246 203.252 76.0246C203.162 76.0246 203.074 75.9994 202.997 75.9518C202.92 75.9042 202.859 75.8361 202.818 75.7551L201.388 73.6059V77.1433C201.388 77.2106 201.375 77.2773 201.349 77.3395C201.324 77.4016 201.286 77.4579 201.238 77.5052C201.19 77.5524 201.133 77.5896 201.071 77.6146C201.009 77.6396 200.942 77.6518 200.875 77.6506C200.808 77.6518 200.742 77.6396 200.68 77.6145C200.618 77.5895 200.562 77.5521 200.515 77.5048C200.468 77.4574 200.431 77.401 200.406 77.3389C200.381 77.2768 200.368 77.2103 200.37 77.1433V72.1813Z" fill="#00ACB9"/>
<path d="M207.675 77.081V72.2208C207.674 72.1517 207.687 72.0832 207.712 72.0191C207.738 71.9551 207.776 71.8969 207.825 71.848C207.873 71.7991 207.931 71.7606 207.995 71.7346C208.059 71.7086 208.127 71.6957 208.196 71.6968H211.621C211.743 71.6979 211.86 71.7473 211.947 71.8342C212.034 71.9211 212.083 72.0386 212.084 72.1615C212.084 72.2226 212.072 72.2831 212.049 72.3396C212.026 72.3961 211.992 72.4474 211.949 72.4906C211.906 72.5338 211.855 72.568 211.798 72.5913C211.742 72.6146 211.682 72.6265 211.621 72.6263H208.709V74.1633H211.241C211.365 74.1649 211.483 74.2155 211.569 74.3039C211.656 74.3924 211.704 74.5116 211.704 74.6357C211.704 74.6963 211.692 74.7563 211.669 74.8122C211.645 74.8681 211.611 74.9187 211.568 74.9612C211.525 75.0036 211.474 75.037 211.418 75.0593C211.361 75.0817 211.301 75.0926 211.241 75.0914H208.709V76.6801H211.662C211.783 76.6808 211.899 76.7288 211.985 76.8138C212.072 76.8988 212.122 77.0143 212.125 77.1357C212.126 77.1971 212.115 77.2581 212.092 77.315C212.069 77.372 212.035 77.4237 211.992 77.4671C211.949 77.5105 211.897 77.5447 211.84 77.5676C211.784 77.5905 211.723 77.6017 211.662 77.6005H208.194C208.126 77.6013 208.058 77.5884 207.995 77.5626C207.932 77.5368 207.874 77.4986 207.826 77.4502C207.778 77.4019 207.739 77.3443 207.714 77.2809C207.688 77.2175 207.675 77.1495 207.675 77.081ZM209.593 71.068C209.599 71.0009 209.623 70.9366 209.661 70.8811L210.141 70.1384C210.179 70.0644 210.237 70.0025 210.309 69.9593C210.38 69.9162 210.462 69.8936 210.545 69.8939C210.814 69.8939 211.15 70.0625 211.15 70.2235C211.145 70.2731 211.13 70.3211 211.105 70.3645C211.081 70.4079 211.048 70.4458 211.008 70.4756L210.443 71.0163C210.365 71.096 210.27 71.1576 210.166 71.1969C210.061 71.2362 209.949 71.2524 209.838 71.2441C209.703 71.2441 209.593 71.1758 209.593 71.068Z" fill="#00ACB9"/>
<path d="M213.313 72.2162C213.312 72.1471 213.324 72.0784 213.35 72.0142C213.376 71.9501 213.414 71.8919 213.463 71.8429C213.512 71.794 213.57 71.7555 213.634 71.7296C213.698 71.7037 213.766 71.691 213.835 71.6922H215.51C217.361 71.6922 218.64 72.968 218.64 74.6312V74.6479C218.64 76.3186 217.361 77.6036 215.51 77.6036H213.835C213.766 77.6048 213.698 77.5921 213.634 77.5663C213.57 77.5405 213.512 77.5021 213.464 77.4534C213.415 77.4046 213.377 77.3465 213.351 77.2826C213.325 77.2186 213.312 77.1501 213.313 77.0811V72.2162ZM215.51 76.6573C216.747 76.6573 217.555 75.8219 217.555 74.6646V74.6479C217.555 73.4905 216.747 72.6385 215.51 72.6385H214.348V76.6573H215.51Z" fill="#00ACB9"/>
<path d="M219.954 72.1645C219.954 72.0268 220.009 71.8946 220.106 71.7972C220.203 71.6998 220.334 71.6451 220.472 71.6451C220.609 71.6451 220.741 71.6998 220.838 71.7972C220.935 71.8946 220.989 72.0268 220.989 72.1645V77.1312C220.989 77.2689 220.935 77.401 220.838 77.4985C220.741 77.5959 220.609 77.6506 220.472 77.6506C220.334 77.6506 220.203 77.5959 220.106 77.4985C220.009 77.401 219.954 77.2689 219.954 77.1312V72.1645Z" fill="#00ACB9"/>
<path d="M222.302 74.6691V74.6524C222.302 72.9726 223.556 71.595 225.339 71.595C226.07 71.5702 226.786 71.8071 227.36 72.2633C227.423 72.3119 227.473 72.3745 227.508 72.4462C227.543 72.5179 227.561 72.5966 227.561 72.6764C227.561 72.7437 227.548 72.8104 227.522 72.8726C227.496 72.9347 227.458 72.991 227.411 73.0383C227.363 73.0855 227.306 73.1227 227.244 73.1477C227.182 73.1727 227.115 73.1849 227.048 73.1837C226.936 73.1848 226.826 73.1491 226.736 73.0819C226.347 72.7399 225.848 72.551 225.331 72.5503C224.212 72.5503 223.387 73.4784 223.387 74.6357V74.6524C223.387 75.8098 224.204 76.7469 225.331 76.7469C225.877 76.7557 226.404 76.5533 226.804 76.1819C226.89 76.1052 227.001 76.063 227.116 76.0634C227.215 76.0624 227.312 76.092 227.394 76.1482C227.475 76.2043 227.538 76.2843 227.573 76.3773C227.607 76.4703 227.613 76.5719 227.588 76.6681C227.564 76.7644 227.51 76.8507 227.435 76.9155C226.854 77.4515 226.087 77.7368 225.298 77.7098C223.58 77.7068 222.302 76.3626 222.302 74.6691Z" fill="#00ACB9"/>
<path d="M228.437 76.9277L230.624 72.0294C230.673 71.9035 230.758 71.7956 230.87 71.7201C230.981 71.6446 231.113 71.6052 231.248 71.6072H231.298C231.431 71.6053 231.562 71.6449 231.672 71.7205C231.782 71.7961 231.866 71.904 231.912 72.0294L234.101 76.9277C234.139 76.9949 234.159 77.0706 234.16 77.1479C234.161 77.2131 234.149 77.2779 234.125 77.3384C234.101 77.399 234.066 77.4542 234.02 77.5006C233.974 77.5471 233.92 77.5839 233.86 77.6089C233.8 77.6338 233.736 77.6465 233.671 77.6461C233.559 77.6462 233.451 77.6112 233.36 77.5461C233.27 77.4809 233.202 77.3889 233.167 77.2831L232.687 76.1773H229.825L229.329 77.3165C229.293 77.4151 229.228 77.5 229.142 77.5591C229.056 77.6183 228.953 77.6487 228.849 77.6461C228.786 77.6469 228.723 77.635 228.664 77.6111C228.606 77.5872 228.552 77.5517 228.508 77.5069C228.463 77.462 228.428 77.4086 228.404 77.3498C228.38 77.291 228.368 77.228 228.369 77.1646C228.373 77.0814 228.396 77.0002 228.437 76.9277ZM232.29 75.2569L231.26 72.8663L230.226 75.2554L232.29 75.2569Z" fill="#00ACB9"/>
</g>
<defs>
<clipPath id="clip0_4_19">
<rect width="247" height="98" fill="white"/>
</clipPath>
</defs>
</svg>
